<svg id="profile" xmlns="http://www.w3.org/2000/svg" viewBox="0 0 64 63.65"><path d="M51.81,56.05a1.57,1.57,0,0,1-.6-.12c-.45-.19-11-4.7-14.19-7.9-2.24-2.22-.46-4.11.71-5.36,1.84-2,4.94-5.27,4.94-13.9,0-13.39-10.24-13.63-10.68-13.63s-10.66.24-10.66,13.63c0,8.63,3.09,11.93,4.94,13.9,1.18,1.25,2.95,3.14.71,5.36-3.22,3.2-13.74,7.71-14.19,7.9a1.54,1.54,0,0,1-2-.8,1.52,1.52,0,0,1,.8-2c2.89-1.23,10.91-4.94,13.24-7.25a1.13,1.13,0,0,0,.2-.24c-.13.06-.59-.49-1-.92-2-2.14-5.75-6.14-5.75-16C18.29,12.3,31.86,12.11,32,12.11s13.71.19,13.71,16.66c0,9.82-3.74,13.82-5.75,16a9.73,9.73,0,0,0-.9,1l.11.12c2.33,2.31,10.35,6,13.24,7.25a1.52,1.52,0,0,1-.6,2.91Z" transform="translate(0 0.02)"/><path d="M32,63.63A31.83,31.83,0,1,1,64,31.81,32,32,0,0,1,32,63.63ZM32,3a28.8,28.8,0,1,0,29,28.8A28.91,28.91,0,0,0,32,3Z" transform="translate(0 0.02)"/></svg>