<svg id="discussions" xmlns="http://www.w3.org/2000/svg" viewBox="0 0 63.93 57.84"><path d="M22.37,52.15l.39-1.47a1.56,1.56,0,0,0-1.08.11ZM7.68,59.49l-1.51-.21a1.53,1.53,0,0,0,2.19,1.58Zm2-13.92,1.51.22a1.54,1.54,0,0,0-.51-1.37ZM32,54.93c17.32,0,32-11.29,32-25.88H61C61,41.36,48.34,51.88,32,51.88ZM22,53.62A38.84,38.84,0,0,0,32,54.93v-3a35.84,35.84,0,0,1-9.27-1.2ZM8.36,60.86l14.69-7.35-1.37-2.72L7,58.13Zm-.2-15.5-2,13.92,3,.43,2-13.92ZM.07,29.05c0,6.89,3.31,13.1,8.6,17.68l2-2.31c-4.74-4.1-7.56-9.51-7.56-15.37ZM32,3.17c-17.31,0-32,11.29-32,25.88h3C3.11,16.74,15.73,6.22,32,6.22ZM64,29.05C64,14.46,49.35,3.17,32,3.17V6.22C48.34,6.22,61,16.74,61,29.05Z" transform="translate(-0.07 -3.17)"/></svg>